<svg width="32" height="35" viewBox="0 0 32 35" fill="none" xmlns="http://www.w3.org/2000/svg">
<path fill-rule="evenodd" clip-rule="evenodd" d="M25.1765 2.36092C23.448 1.50541 21.5221 1.24637 19.6556 1.61834C17.7891 1.99031 16.0705 2.97561 14.729 4.44295C13.3874 5.91029 12.4865 7.78996 12.1465 9.83148C11.8628 11.534 11.9805 13.2817 12.481 14.9116L3.88399 24.3146C3.10351 25.1683 2.66504 26.3261 2.66504 27.5333C2.66504 28.7405 3.10351 29.8983 3.88399 30.752C4.66447 31.6056 5.72303 32.0852 6.8268 32.0852C7.93057 32.0852 8.98913 31.6056 9.76961 30.752L18.3666 21.349C19.8569 21.8965 21.4547 22.0251 23.0113 21.7149C24.8779 21.343 26.5964 20.3577 27.938 18.8903C29.2795 17.423 30.1804 15.5433 30.5205 13.5018C30.8606 11.4603 30.6237 9.35389 29.8415 7.46332C29.6611 7.02716 29.2964 6.71565 28.8658 6.62984C28.4352 6.54403 27.9935 6.69484 27.684 7.03336L22.6668 12.5209L20.5524 10.2083L25.5696 4.72075C25.8791 4.38223 26.017 3.89913 25.9385 3.42815C25.8601 2.95716 25.5753 2.55829 25.1765 2.36092ZM20.1336 4.48777C20.7785 4.35925 21.4333 4.33619 22.0772 4.41578L18.6573 8.15627L18.6479 8.16664C18.1593 8.71184 17.8857 9.44485 17.8857 10.2083C17.8857 10.9718 18.1593 11.7048 18.6479 12.25L18.6573 12.2603L20.7907 14.5937L20.8001 14.6039C21.2986 15.1383 21.9688 15.4377 22.6668 15.4377C23.3648 15.4377 24.035 15.1383 24.5335 14.6039L24.5429 14.5937L27.9628 10.8532C28.0356 11.5575 28.0145 12.2737 27.897 12.979C27.6541 14.4372 27.0106 15.7798 26.0524 16.8279C25.0941 17.876 23.8666 18.5798 22.5333 18.8455C21.2001 19.1112 19.8245 18.9262 18.5898 18.3151C18.0842 18.0648 17.4897 18.1833 17.0973 18.6125L7.88399 28.6896C7.60361 28.9963 7.22332 29.1686 6.8268 29.1686C6.43028 29.1686 6.04999 28.9963 5.76961 28.6896C5.48922 28.3829 5.33171 27.967 5.33171 27.5333C5.33171 27.0996 5.48922 26.6837 5.76961 26.377L14.9829 16.2999C15.3754 15.8707 15.4837 15.2205 15.2549 14.6675C14.6962 13.3171 14.527 11.8125 14.7699 10.3543C15.0128 8.89607 15.6563 7.55344 16.6146 6.50534C17.5728 5.45725 18.8004 4.75346 20.1336 4.48777Z" fill="#1A202C"/>
</svg>
